<?xml version="1.0" encoding="utf-8"?>
<!-- Generator: Adobe Illustrator 24.2.3, SVG Export Plug-In . SVG Version: 6.00 Build 0)  -->
<svg version="1.1" id="Camada_1" xmlns="http://www.w3.org/2000/svg" xmlns:xlink="http://www.w3.org/1999/xlink" x="0px" y="0px"
	 viewBox="0 0 806.34 653.84" style="enable-background:new 0 0 806.34 653.84;" xml:space="preserve">
<style type="text/css">
	.st0{fill:#FFFFFF;}
</style>
<g>
	<g>
		<path class="st0" d="M398.73,326.62c0.24,0.39,0.47,0.79,0.71,1.18c2.51-0.45,5.08-0.69,7.52-1.38
			c12.78-3.64,25.55-7.37,38.3-11.14c9.42-2.78,13.79-1.37,19.34,6.41c2.91,4.09,4.74,4.41,9.03,1.15
			c9.81-7.45,19.55-15,29.32-22.52c6.57-5.06,8.41-5.1,14.99-0.34c9.72,7.02,19.42,14.06,29.17,21.04
			c5.46,3.91,7.57,3.79,12.84-0.51c3.49-2.84,7.23-5.44,10.34-8.65c5.15-5.33,10.22-5.2,16.58-1.97
			c16.45,8.36,33.15,16.25,49.83,24.15c2.65,1.26,5.71,1.64,8.58,2.43c0.36-0.51,0.72-1.02,1.08-1.53c-1.34-2.36-2.35-5-4.06-7.05
			c-32.23-38.62-64.53-77.17-96.84-115.72c-5.43-6.48-7.1-6.6-13.39-1.22c-42.52,36.38-85.05,72.76-127.52,109.2
			C402.36,322.02,400.65,324.45,398.73,326.62z"/>
		<path class="st0" d="M374.74,350.42c11.66,14.22,22.73,27.72,33.81,41.21c22.32,27.16,44.49,54.45,67.02,81.44
			c15.71,18.82,35.5,32.11,60.1,34.43c51.16,4.83,92.89-12.81,122.01-56.29c12.34-18.42,19.73-38.88,20.67-61.23
			c1.01-23.98-3.92-46.56-18.9-65.81c-16.57-21.3-33.83-42.06-50.86-63.01c-19.55-24.05-39.17-48.04-58.76-72.06
			c-5.29-6.49-6.76-6.68-13.35-1.32C389.27,307.54,242.05,427.32,94.84,547.12c-7.33,5.96-7.64,5.96-13.74-1.5
			c-25.74-31.48-51.46-62.96-77.19-94.44c-5.46-6.68-5.38-7.65,1.41-13.17C177.02,298.41,348.74,158.83,520.45,19.25
			c5.82-4.73,11.63-9.47,17.49-14.14c8.88-7.09,10.24-7.02,17.34,1.64c19.76,24.09,39.47,48.23,59.17,72.37
			c45.61,55.9,91.22,111.81,136.81,167.74c30.97,38,48.21,81.68,53.54,130.2c13.8,125.63-65.72,241.79-188.8,269.56
			c-96.38,21.75-179.87-5.9-247.03-79.05c-18.11-19.73-34.18-41.34-51.3-61.99c-3.57-4.3-4.29-8.27-2.03-13.68
			c18.7-44.65,37.12-89.43,55.64-134.15C372.16,355.6,373.25,353.54,374.74,350.42z M399.43,154.72c0.56,0.83,1.13,1.66,1.69,2.49
			c1.71-0.33,3.46-0.54,5.13-1.02c14.54-4.18,29.04-8.48,43.59-12.6c7.9-2.24,12.22-0.78,16.2,4.99c4.19,6.08,6.16,6.47,12,2.02
			c9.53-7.27,18.99-14.64,28.48-21.97c6.14-4.75,7.4-4.78,13.57-0.34c10.14,7.29,20.35,14.48,30.4,21.89
			c4.15,3.06,7.71,3.09,11.56-0.46c3.67-3.38,7.87-6.2,11.45-9.66c4.79-4.64,9.47-4.79,15.33-1.82
			c17.81,9.01,35.81,17.62,53.78,26.3c3.41,1.65,7.02,2.89,10.54,4.31c0.23-0.38,0.46-0.76,0.7-1.14c-1.2-1.76-2.27-3.63-3.63-5.25
			c-34.28-40.81-68.58-81.6-102.9-122.38c-4.39-5.22-6.21-5.35-11.51-0.81c-43.9,37.58-87.79,75.2-131.71,112.76
			C402.76,153.17,401,153.83,399.43,154.72z"/>
		<path class="st0" d="M398.73,326.62c1.93-2.17,3.63-4.6,5.81-6.48c42.47-36.44,84.99-72.82,127.52-109.2
			c6.29-5.38,7.95-5.26,13.39,1.22c32.31,38.54,64.62,77.1,96.84,115.72c1.71,2.05,2.72,4.69,4.06,7.05
			c-0.36,0.51-0.72,1.02-1.08,1.53c-2.87-0.79-5.93-1.17-8.58-2.43c-16.68-7.91-33.38-15.79-49.83-24.15
			c-6.36-3.23-11.43-3.36-16.58,1.97c-3.11,3.21-6.85,5.81-10.34,8.65c-5.28,4.3-7.38,4.42-12.84,0.51
			c-9.75-6.98-19.45-14.01-29.17-21.04c-6.58-4.76-8.42-4.72-14.99,0.34c-9.76,7.52-19.51,15.07-29.32,22.52
			c-4.29,3.26-6.12,2.94-9.03-1.15c-5.54-7.78-9.92-9.19-19.34-6.41c-12.75,3.76-25.51,7.49-38.3,11.14
			c-2.44,0.7-5.01,0.93-7.52,1.38C399.2,327.41,398.96,327.01,398.73,326.62z"/>
	</g>
</g>
</svg>
